<svg xmlns="http://www.w3.org/2000/svg" width="25" height="25" viewBox="0 0 25 25">
  <path id="Exclusion_1" data-name="Exclusion 1" d="M-4818.5,1928a12.014,12.014,0,0,1-12-12,12.013,12.013,0,0,1,12-12,12.013,12.013,0,0,1,12,12A12.014,12.014,0,0,1-4818.5,1928Zm0-8a18.959,18.959,0,0,0-7.99,1.987,10.151,10.151,0,0,0,3.455,2.918A9.832,9.832,0,0,0-4818.5,1926a9.835,9.835,0,0,0,4.537-1.095,10.149,10.149,0,0,0,3.455-2.918A18.951,18.951,0,0,0-4818.5,1920Zm0-12.5a5.756,5.756,0,0,0-5.75,5.75,5.756,5.756,0,0,0,5.75,5.75,5.757,5.757,0,0,0,5.75-5.75A5.757,5.757,0,0,0-4818.5,1907.5Z" transform="translate(4831 -1903.5)" />
</svg>
