<svg xmlns="http://www.w3.org/2000/svg" width="22" height="22" viewBox="0 0 22 22">
  <g id="Group_1" data-name="Group 1" transform="translate(-1209 -124)">
    <circle id="Oval_Copy_2" data-name="Oval Copy 2" cx="11" cy="11" r="11" transform="translate(1209 124)" fill="#ff9215"/>
    <g id="Group" transform="translate(1214 130)">
      <path id="Shape" d="M3,8.611a6.56,6.56,0,0,0-2.59.611c-.055,0-.082.028-.137.028A.3.3,0,0,1,0,8.972V.833A5.005,5.005,0,0,1,3,0,5.006,5.006,0,0,1,6,.833,5,5,0,0,1,9,0a6.332,6.332,0,0,1,1.909.278A3.67,3.67,0,0,1,12,.833V8.944a.3.3,0,0,1-.273.278.24.24,0,0,1-.136-.028A5.469,5.469,0,0,0,9,8.611a6.475,6.475,0,0,0-3,.833A5.006,5.006,0,0,0,3,8.611Z" transform="translate(0 0.278)" fill="#1f222b"/>
      <g id="Group-2" data-name="Group" transform="translate(6.545 2.778)">
        <path id="Path" d="M2.455.833A6.267,6.267,0,0,1,3.818.978V.133A7.236,7.236,0,0,0,2.455,0,6.176,6.176,0,0,0,0,.461v.922A4.988,4.988,0,0,1,2.455.833Z" fill="#1f222b"/>
        <path id="Path-2" data-name="Path" d="M0,.461v.922A4.988,4.988,0,0,1,2.455.833,6.267,6.267,0,0,1,3.818.978V.133A7.236,7.236,0,0,0,2.455,0,6.275,6.275,0,0,0,0,.461Z" transform="translate(0 1.478)" fill="#1f222b"/>
        <path id="Path-3" data-name="Path" d="M2.455,0A6.176,6.176,0,0,0,0,.461v.922A4.988,4.988,0,0,1,2.455.833,6.267,6.267,0,0,1,3.818.978V.133A6.8,6.8,0,0,0,2.455,0Z" transform="translate(0 2.961)" fill="#1f222b"/>
      </g>
    </g>
  </g>
</svg>
