<svg xmlns="http://www.w3.org/2000/svg" width="21.5" height="17.5" viewBox="0 0 21.5 17.5">
  <g transform="translate(0.75 0.75)" stroke="" stroke-miterlimit="10" stroke-width="1.5">
    <rect width="14" height="14" rx="1" fill="#fff" />
    <path d="M0,0H2.208A2,2,0,0,1,3.987,1.085l1.9,3.7A1,1,0,0,1,6,5.242V8A1,1,0,0,1,5,9H0Z" transform="translate(14 5)" fill="#fff" />
    <path d="M0,0H5A1,1,0,0,1,6,1V3A1,1,0,0,1,5,4H1A1,1,0,0,1,0,3V0A0,0,0,0,1,0,0Z" transform="translate(14 10)" fill="#fff" />
    <circle cx="2" cy="2" r="2" transform="translate(2 12)" fill="#fff" />
    <circle cx="2" cy="2" r="2" transform="translate(12 12)" fill="#fff" />
  </g>
</svg>
