<svg id="Facebook_Black" data-name="Facebook/Black" xmlns="http://www.w3.org/2000/svg" width="19" height="19" viewBox="0 0 19 19">
  <g id="Facebook_Black-2" data-name="Facebook/Black">
    <path id="Facebook" d="M10.149,19h-9.1A1.049,1.049,0,0,1,0,17.951V1.049A1.049,1.049,0,0,1,1.049,0h16.9A1.049,1.049,0,0,1,19,1.049v16.9A1.049,1.049,0,0,1,17.951,19H13.11V11.642h2.47l.37-2.867H13.11V6.944c0-.83.231-1.4,1.421-1.4h1.518V2.983a20.3,20.3,0,0,0-2.213-.113,3.455,3.455,0,0,0-3.688,3.79V8.775H7.672v2.867h2.476V19Z" />
  </g>
</svg>
