<svg xmlns="http://www.w3.org/2000/svg" width="20" height="20" viewBox="0 0 20 20">
  <path d="M17.656,20H2.344A2.346,2.346,0,0,1,0,17.656V2.344A2.346,2.346,0,0,1,2.344,0H17.656A2.346,2.346,0,0,1,20,2.344V17.656A2.346,2.346,0,0,1,17.656,20ZM13.2,12.07v6.368h4.453a.782.782,0,0,0,.781-.781V2.344a.782.782,0,0,0-.781-.781H2.344a.782.782,0,0,0-.781.781V17.656a.782.782,0,0,0,.781.781h8.438V12.07H8.438V9.648h2.344V7.976a3.6,3.6,0,0,1,3.593-3.6h1.6V6.8h-1.6A1.146,1.146,0,0,0,13.2,7.969V9.648h2.812l-.4,2.422Z"/>
</svg>
