<svg xmlns="http://www.w3.org/2000/svg" width="19.969" height="24.397" viewBox="0 0 19.969 24.397">
  <g transform="translate(-0.023)">
    <path d="M15.8,0h-.713V17.526a2.115,2.115,0,0,1-2.112,2.112H0v.65a1.348,1.348,0,0,0,1.348,1.348H15.8a1.348,1.348,0,0,0,1.348-1.348V1.348A1.346,1.346,0,0,0,15.8,0Z" transform="translate(2.846 2.762)" />
    <path d="M15.8,21.636H1.348A1.35,1.35,0,0,1,0,20.288V6.173H.469c.037,0,.079.005.117.005H4.278a1.9,1.9,0,0,0,1.9-1.9V.589c0-.046,0-.094-.007-.143V0H15.8a1.35,1.35,0,0,1,1.348,1.348v18.94A1.35,1.35,0,0,1,15.8,21.636ZM4.133,15.781a.637.637,0,1,0,0,1.274H8.843a.637.637,0,1,0,0-1.274Zm0-3.251a.637.637,0,1,0,0,1.274h9.424a.637.637,0,1,0,0-1.274Zm0-3.452a.637.637,0,1,0,0,1.274h9.424a.637.637,0,1,0,0-1.274Z" transform="translate(0.023)" />
    <path d="M.57,5.394h3.7A1.131,1.131,0,0,0,5.392,4.273V.568A.567.567,0,0,0,4.822,0a.552.552,0,0,0-.4.168L.167,4.425A.567.567,0,0,0,.57,5.394Z" transform="translate(0.039 0.02)" />
  </g>
</svg>
