<svg xmlns="http://www.w3.org/2000/svg" width="27.602" height="25.65" viewBox="0 0 27.602 25.65">
  <g fill="none" stroke="" stroke-miterlimit="10" stroke-width="2">
    <path d="M18.813,0c4.722.038,8.436,6.133,6.791,11.045-1.376,4.109-4.852,7.237-8.336,10.009C15.988,22.072,14.369,23.126,13,24,8.8,21.2,4.34,17.761,1.653,13.485A9.418,9.418,0,0,1,.7,4.681,7.548,7.548,0,0,1,7.907.034a9.256,9.256,0,0,1,5.108,2.393,16.85,16.85,0,0,1,1.5-1.092A8.178,8.178,0,0,1,18.813,0Z" transform="translate(0.807 0.754)" />
  </g>
</svg>
