<svg xmlns="http://www.w3.org/2000/svg" width="17.718" height="17.718" viewBox="0 0 17.718 17.718">
  <path d="M8.859,17.718a8.859,8.859,0,1,1,8.86-8.86A8.869,8.869,0,0,1,8.859,17.718ZM7.045,8.062a.9.9,0,0,1,.609.151.732.732,0,0,1,.159.537,2.474,2.474,0,0,1-.051.475c-.031.156-.073.336-.129.548L7.063,11.79c-.051.218-.087.4-.11.569a3.754,3.754,0,0,0-.034.495,1.309,1.309,0,0,0,.459,1.025,1.89,1.89,0,0,0,1.287.4,2.918,2.918,0,0,0,.947-.141c.29-.1.657-.24,1.091-.411l.153-.62a2.831,2.831,0,0,1-.38.127,1.766,1.766,0,0,1-.47.073,1,1,0,0,1-.62-.146.676.676,0,0,1-.179-.545,2.9,2.9,0,0,1,.055-.47,5.453,5.453,0,0,1,.125-.552l.568-2.011a3.173,3.173,0,0,0,.114-.608c.021-.232.031-.38.031-.464a1.325,1.325,0,0,0-.446-1.031,1.856,1.856,0,0,0-1.269-.4,3.173,3.173,0,0,0-.967.164c-.336.106-.7.237-1.073.391l-.151.621c.116-.045.26-.09.4-.132A1.641,1.641,0,0,1,7.045,8.062Zm2.6-4.655a1.36,1.36,0,0,0-.959.373,1.2,1.2,0,0,0,0,1.792,1.428,1.428,0,0,0,1.916,0,1.21,1.21,0,0,0,0-1.792A1.35,1.35,0,0,0,9.646,3.407Z" />
</svg>
