<svg id="Instagram_Black" data-name="Instagram/Black" xmlns="http://www.w3.org/2000/svg" width="19" height="19" viewBox="0 0 19 19">
  <g id="Instagram_Black-2" data-name="Instagram/Black">
    <path id="Instagram" d="M5.583,18.943A7.015,7.015,0,0,1,3.277,18.5a4.648,4.648,0,0,1-1.683-1.1A4.65,4.65,0,0,1,.5,15.723a7.021,7.021,0,0,1-.442-2.306C.011,12.4,0,12.058,0,9.5S.011,6.6.057,5.583A7.021,7.021,0,0,1,.5,3.277a4.649,4.649,0,0,1,1.1-1.683A4.649,4.649,0,0,1,3.277.5,7.021,7.021,0,0,1,5.583.057C6.6.011,6.942,0,9.5,0s2.9.011,3.917.057A7.021,7.021,0,0,1,15.723.5a4.65,4.65,0,0,1,1.683,1.1,4.648,4.648,0,0,1,1.1,1.683,7.015,7.015,0,0,1,.442,2.306C18.989,6.6,19,6.932,19,9.5s-.011,2.9-.057,3.917a7.009,7.009,0,0,1-.442,2.306A4.854,4.854,0,0,1,15.723,18.5a7.009,7.009,0,0,1-2.306.442C12.4,18.989,12.068,19,9.5,19S6.6,18.989,5.583,18.943ZM5.661,1.767A5.264,5.264,0,0,0,3.9,2.094,2.944,2.944,0,0,0,2.8,2.8,2.944,2.944,0,0,0,2.094,3.9a5.264,5.264,0,0,0-.327,1.764c-.046,1-.055,1.3-.055,3.839s.01,2.838.055,3.839A5.264,5.264,0,0,0,2.094,15.1,2.944,2.944,0,0,0,2.8,16.2a2.944,2.944,0,0,0,1.092.711,5.264,5.264,0,0,0,1.764.327c1.006.046,1.307.056,3.839.056s2.833-.01,3.839-.056a5.264,5.264,0,0,0,1.764-.327,3.147,3.147,0,0,0,1.8-1.8,5.264,5.264,0,0,0,.327-1.764c.046-1.006.056-1.307.056-3.839s-.01-2.833-.056-3.839A5.264,5.264,0,0,0,16.906,3.9,2.944,2.944,0,0,0,16.2,2.8,2.944,2.944,0,0,0,15.1,2.094a5.264,5.264,0,0,0-1.764-.327c-1-.046-1.3-.055-3.839-.055S6.662,1.721,5.661,1.767ZM6.051,12.95A4.879,4.879,0,1,1,9.5,14.378,4.846,4.846,0,0,1,6.051,12.95ZM6.333,9.5A3.167,3.167,0,1,0,9.5,6.333,3.17,3.17,0,0,0,6.333,9.5Zm7.1-5.071a1.14,1.14,0,1,1,1.14,1.14A1.14,1.14,0,0,1,13.431,4.429Z" />
  </g>
</svg>
