<svg id="Logo" xmlns="http://www.w3.org/2000/svg" xmlns:xlink="http://www.w3.org/1999/xlink" width="239" height="46" viewBox="0 0 239 46">
  <g id="Group_21" data-name="Group 21">
    <path id="Fill_1" data-name="Fill 1" d="M5.417,8.621A7.564,7.564,0,0,1,17.389,7.3L20.961,3.88A12.523,12.523,0,0,0,0,8.621Z" transform="translate(11.011 10.381)" fill="#8a8b91"/>
    <path id="Fill_3" data-name="Fill 3" d="M11.907,3.675A7.585,7.585,0,0,1,5.417,0H0A12.557,12.557,0,0,0,11.907,8.621a12.5,12.5,0,0,0,9.044-3.868L17.38,1.33a7.563,7.563,0,0,1-5.473,2.345" transform="translate(11.011 26.833)" fill="#8a8b91"/>
    <path id="Fill_5" data-name="Fill 5" d="M5.12,25.391H27.05V20.444H5.12A17.957,17.957,0,0,1,35.895,10.5l3.567-3.418A22.9,22.9,0,0,0,0,22.917a23.08,23.08,0,0,0,.136,2.473Z" transform="translate(0 0)" fill="#ff9215"/>
    <path id="Fill_7" data-name="Fill 7" d="M34.321,0H28.814a12.538,12.538,0,0,1,0,4.946h5.507a18,18,0,0,1-17.8,15.5A17.91,17.91,0,0,1,3.567,14.909L0,18.328a22.847,22.847,0,0,0,16.524,7.062A22.944,22.944,0,0,0,39.442,2.473,23.087,23.087,0,0,0,39.306,0Z" transform="translate(6.393 20.445)" fill="#ff9215"/>
    <path id="Fill_9" data-name="Fill 9" d="M14.527,15.125a5.22,5.22,0,0,1,1.485,3.55A6.077,6.077,0,0,1,15,22.108a7.517,7.517,0,0,1-2.572,2.418,8.664,8.664,0,0,1-4.275.887,9.826,9.826,0,0,1-4.528-.932A14.786,14.786,0,0,1,0,21.737L2.645,19A13.815,13.815,0,0,0,7.9,21.6a3.616,3.616,0,0,0,3.459-1.023,2.022,2.022,0,0,0,.38-2.771,10.615,10.615,0,0,0-3.07-2.744q-2.129-1.367-3.849-2.418A11.781,11.781,0,0,1,1.92,10.2,5.594,5.594,0,0,1,.606,6.9a5.558,5.558,0,0,1,.924-3.523A6.932,6.932,0,0,1,4.456.878,10.263,10.263,0,0,1,8.867,0a8.747,8.747,0,0,1,4.085.815A13.075,13.075,0,0,1,16.3,3.623L13.585,6.394Q11.357,3.8,9.084,3.6a4.352,4.352,0,0,0-3.423.842A3.239,3.239,0,0,0,4.438,6.584a2.171,2.171,0,0,0,.725,1.829A11.748,11.748,0,0,0,6.729,9.646q.77.5,3.542,2.164A18.714,18.714,0,0,1,14.527,15.125Z" transform="translate(57.459 10.168)" fill="#ff9215"/>
    <path id="Clip_12-2" data-name="Clip 12" d="M0,45.835H238.6V0H0Z" fill="none"/>
    <path id="Fill_11" data-name="Fill 11" d="M0,25.359H3.623V0H0Z" transform="translate(75.573 10.222)" fill="#ff9215"/>
    <path id="Fill_13" data-name="Fill 13" d="M19.943,7.245a9.233,9.233,0,0,0-.851-.978A8.771,8.771,0,0,0,12.68,3.623a8.724,8.724,0,0,0-6.4,2.654,8.724,8.724,0,0,0-2.654,6.4,8.724,8.724,0,0,0,2.654,6.4,8.724,8.724,0,0,0,6.4,2.654,8.74,8.74,0,0,0,6.412-2.663,8.733,8.733,0,0,0,2.482-4.583H12.68V10.868H25.251a14.944,14.944,0,0,1,.109,1.811,12.217,12.217,0,0,1-3.714,8.967,12.216,12.216,0,0,1-8.966,3.713,12.217,12.217,0,0,1-8.967-3.713A12.219,12.219,0,0,1,0,12.679,12.218,12.218,0,0,1,3.713,3.713,12.217,12.217,0,0,1,12.68,0a12.216,12.216,0,0,1,8.966,3.713,13.928,13.928,0,0,1,1.2,1.358Z" transform="translate(81.007 10.223)" fill="#ff9215"/>
    <path id="Fill_14" data-name="Fill 14" d="M0,0,14.491,15.94V.054h3.623V19.907l.073.072h-.073v5.434l-.254-.4L3.623,9.383v16.03H0Z" transform="translate(108.177 10.195)" fill="#ff9215"/>
    <path id="Fill_15" data-name="Fill 15" d="M16.3,3.623H3.623V9.057H16.3V12.68H3.623v9.057H16.3v3.623H0V0H16.3Z" transform="translate(128.102 10.222)" fill="#8a8b91"/>
    <path id="Fill_16" data-name="Fill 16" d="M9.057,8.912,13.966,0h4.148L11.14,12.68l6.974,12.68H13.966L9.057,16.447,4.148,25.359H0L6.992,12.68,0,0H4.148Z" transform="translate(146.216 10.222)" fill="#8a8b91"/>
    <path id="Fill_17" data-name="Fill 17" d="M3.623,25.359H0V0H9.057a7.013,7.013,0,0,1,5.126,2.119A7.016,7.016,0,0,1,16.3,7.245a7.011,7.011,0,0,1-2.119,5.126,7.011,7.011,0,0,1-5.126,2.12H3.623V25.358Zm0-21.737v7.245H9.057A3.618,3.618,0,0,0,12.68,7.245,3.62,3.62,0,0,0,9.057,3.623Z" transform="translate(166.141 10.222)" fill="#8a8b91"/>
    <path id="Fill_18" data-name="Fill 18" d="M16.3,3.623H3.623V9.057H16.3V12.68H3.623v9.057H16.3v3.623H0V0H16.3Z" transform="translate(184.255 10.222)" fill="#8a8b91"/>
    <path id="Fill_19" data-name="Fill 19" d="M3.623,25.36H0V0H9.057a7.013,7.013,0,0,1,5.126,2.119A7.016,7.016,0,0,1,16.3,7.245a7.011,7.011,0,0,1-2.119,5.126,6.975,6.975,0,0,1-4.021,2.047l6.249,10.94-4.166,0L6.05,14.491H3.623V25.359Zm0-21.738v7.245H9.057A3.618,3.618,0,0,0,12.68,7.245,3.62,3.62,0,0,0,9.057,3.623Z" transform="translate(202.368 10.222)" fill="#8a8b91"/>
    <path id="Fill_20" data-name="Fill 20" d="M7.245,3.623H0V0H18.114V3.623H10.868V25.359H7.245Z" transform="translate(220.482 10.222)" fill="#8a8b91"/>
  </g>
</svg>
