<svg id="Group" xmlns="http://www.w3.org/2000/svg" width="168.164" height="47.652" viewBox="0 0 168.164 47.652">
  <path id="Fill_1" data-name="Fill 1" d="M3.69,17.644H0L3.274.442A21.581,21.581,0,0,1,7.952,0a8.632,8.632,0,0,1,4.6,1.013,3.784,3.784,0,0,1,1.949,3.4A4.731,4.731,0,0,1,13.36,7.6a6.227,6.227,0,0,1-2.836,1.78v.077c.963.434,1.492,1.45,1.663,3.2.067.566.126,1.158.182,1.73a16.2,16.2,0,0,0,.493,3.257H9.017a25.953,25.953,0,0,1-.494-4.131c-.173-2.027-.821-2.781-2.39-2.781H4.989l-1.3,6.912ZM7.925,2.937a6.3,6.3,0,0,0-1.455.129l-.909,4.86H7.094c2.033,0,3.508-1.235,3.508-2.936a1.792,1.792,0,0,0-.773-1.562A3.34,3.34,0,0,0,7.925,2.937Z" transform="translate(54.219 16.853)" fill="#df0000"/>
  <path id="Fill_3" data-name="Fill 3" d="M3.742,18.241H0L2.417,5.534H6.159L3.742,18.24ZM4.782,3.95H4.73A1.728,1.728,0,0,1,2.937,2.13,2.092,2.092,0,0,1,3.586.588,2.184,2.184,0,0,1,5.093,0a1.772,1.772,0,0,1,1.9,1.845A2.065,2.065,0,0,1,4.782,3.95Z" transform="translate(69.346 16.255)" fill="#df0000"/>
  <path id="Fill_5" data-name="Fill 5" d="M0,12.993,1.611,4.417c.338-1.61.52-2.988.7-4.131h3.3L5.379,2.391h.053A5.366,5.366,0,0,1,9.875,0c2.079,0,3.274,1.273,3.274,3.482a15.509,15.509,0,0,1-.208,2.13l-1.4,7.38H7.769L9.121,5.951a8.253,8.253,0,0,0,.13-1.4c0-.909-.312-1.533-1.273-1.533-1.221,0-2.65,1.533-3.17,4.339L3.742,12.993Z" transform="translate(76.207 21.504)" fill="#df0000"/>
  <path id="Fill_7" data-name="Fill 7" d="M5.379,13.3a5.426,5.426,0,0,1-3.9-1.448A5.2,5.2,0,0,1,0,8.03,8.34,8.34,0,0,1,2.1,2.368,7.328,7.328,0,0,1,7.588,0a5.36,5.36,0,0,1,3.966,1.533A5.281,5.281,0,0,1,12.966,5.25a8.342,8.342,0,0,1-2.147,5.772A7.369,7.369,0,0,1,5.379,13.3ZM7.094,2.859a2.9,2.9,0,0,0-2.42,1.819,7.616,7.616,0,0,0-.8,3.3c0,1.546.767,2.469,2.053,2.469A2.81,2.81,0,0,0,8.26,8.67a7.587,7.587,0,0,0,.835-3.395C9.094,4.107,8.569,2.859,7.094,2.859Z" transform="translate(91.308 21.477)" fill="#df0000"/>
  <path id="Fill_9" data-name="Fill 9" d="M3.664,17.644H0L3.248.442A20.65,20.65,0,0,1,7.822,0a8.478,8.478,0,0,1,4.651,1.143,4.3,4.3,0,0,1,1.9,3.742A6.045,6.045,0,0,1,12.005,9.8a9.16,9.16,0,0,1-5.613,1.637,11.169,11.169,0,0,1-1.136-.069c-.142-.014-.276-.027-.4-.035l-1.2,6.314ZM7.951,2.988a9.521,9.521,0,0,0-1.533.1L5.431,8.263a6.849,6.849,0,0,0,1.455.13,4.027,4.027,0,0,0,2.7-.936A2.993,2.993,0,0,0,10.6,5.2C10.6,4.189,10.142,2.988,7.951,2.988Z" transform="translate(105.551 16.853)"/>
  <path id="Fill_11" data-name="Fill 11" d="M3.846,13.278C1.545,13.278,0,11.5,0,8.861,0,4.593,2.846,0,9.095,0A14.9,14.9,0,0,1,13.3.624L11.979,7.276a30.9,30.9,0,0,0-.52,5.717H8.029c.016-.456.05-.948.087-1.468.024-.34.048-.692.069-1.053H8.132A4.783,4.783,0,0,1,3.846,13.278ZM8.081,2.832a3.771,3.771,0,0,0-3,1.776A6.338,6.338,0,0,0,3.9,8.159c0,1.338.559,2.105,1.533,2.105,1.038,0,2.471-1.15,3.093-4.391l.571-2.936A5.394,5.394,0,0,0,8.081,2.832Z" transform="translate(119.846 21.504)"/>
  <path id="Fill_13" data-name="Fill 13" d="M0,12.993,1.429,5.431c.364-1.923.52-4.054.65-5.146H5.327C5.249,1.143,5.2,2,5.093,2.884h.077A4.782,4.782,0,0,1,9.225,0a6.293,6.293,0,0,1,.7.026L9.2,3.664a4.379,4.379,0,0,0-.6-.026c-2.391,0-3.508,2.132-3.976,4.626l-.883,4.729Z" transform="translate(134.062 21.504)"/>
  <path id="Fill_15" data-name="Fill 15" d="M6.47,0l-.65,3.43H8.549L7.977,6.288h-2.7L4.417,10.6a9.216,9.216,0,0,0-.208,1.611c0,.623.26,1.066,1.092,1.066a6.553,6.553,0,0,0,1.013-.053L5.9,16.163a7.615,7.615,0,0,1-2.209.285C1.429,16.448.364,15.3.364,13.694A11.1,11.1,0,0,1,.65,11.329l.962-5.04H0L.52,3.43H2.156l.468-2.39Z" transform="translate(145.055 18.334)"/>
  <path id="Fill_17" data-name="Fill 17" d="M.909,9.667a8.146,8.146,0,0,0,3.3.884c1.066,0,1.611-.52,1.611-1.143S5.4,8.342,4.235,7.77C2.78,7.043,1.559,5.977,1.559,4.392,1.559,1.741,3.872,0,7.146,0A7.324,7.324,0,0,1,10.42.65L9.511,3.3A6.282,6.282,0,0,0,6.99,2.755c-1.013,0-1.663.416-1.663,1.117,0,.52.52.962,1.533,1.455,1.4.7,2.859,1.715,2.859,3.482,0,2.91-2.469,4.5-5.847,4.47A7.448,7.448,0,0,1,0,12.291Z" transform="translate(152.956 21.477)"/>
  <path id="Fill_19" data-name="Fill 19" d="M11.511,23.02A11.51,11.51,0,0,1,3.372,3.371,11.51,11.51,0,1,1,19.65,19.649,11.436,11.436,0,0,1,11.511,23.02Zm-.068-5.812a1.818,1.818,0,1,0,1.818,1.819A1.822,1.822,0,0,0,11.444,17.208ZM5.053,13.523a1.819,1.819,0,1,0,1.576.908A1.818,1.818,0,0,0,5.053,13.523Zm12.874-.17a1.821,1.821,0,1,0,.867.221A1.819,1.819,0,0,0,17.927,13.353ZM11.511,7.989a3.521,3.521,0,1,0,3.522,3.521A3.525,3.525,0,0,0,11.511,7.989ZM4.961,6.3a1.818,1.818,0,1,0,.867.221A1.817,1.817,0,0,0,4.961,6.3Zm12.868-.171A1.82,1.82,0,1,0,19.4,7.04,1.816,1.816,0,0,0,17.828,6.131ZM11.444,2.448a1.818,1.818,0,1,0,1.818,1.818A1.821,1.821,0,0,0,11.444,2.448Z" transform="translate(13.441 13.392)"/>
  <path id="Fill_21" data-name="Fill 21" d="M24.366,0V3.259A19.5,19.5,0,1,1,3.26,24.47H0A22.746,22.746,0,1,0,24.366,0" transform="translate(2.279 2.222)"/>
  <path id="Fill_23" data-name="Fill 23" d="M24.952,11.375V0A24.988,24.988,0,0,0,0,24.988H11.375A13.628,13.628,0,0,1,24.952,11.375" transform="translate(0 0)" fill="#df0000"/>
  <path id="Fill_25" data-name="Fill 25" d="M1.967,3.938h0A1.969,1.969,0,0,1,0,1.968,1.969,1.969,0,1,1,1.967,3.938ZM1.969.4a1.569,1.569,0,1,0,1.569,1.57A1.572,1.572,0,0,0,1.969.4Z" transform="translate(164.226 30.814)"/>
  <path id="Fill_27" data-name="Fill 27" d="M.531,2.061H0V0H.855a1.33,1.33,0,0,1,.353.045.605.605,0,0,1,.229.115A.417.417,0,0,1,1.575.39a.718.718,0,0,1-.006.377.45.45,0,0,1-.178.241.641.641,0,0,1-.174.085l-.011,0,.025.01a.577.577,0,0,1,.059.026.465.465,0,0,1,.165.148,1.419,1.419,0,0,1,.121.206q.139.282.28.563l0,.007h0v0H1.305a.015.015,0,0,1-.015-.01q-.126-.258-.253-.514a.688.688,0,0,0-.093-.146.284.284,0,0,0-.2-.105,1.081,1.081,0,0,0-.111,0h-.1V2.06Zm0-1.675V.915H.77A.457.457,0,0,0,.909.9.2.2,0,0,0,1.052.758a.4.4,0,0,0,0-.205A.193.193,0,0,0,.913.405.525.525,0,0,0,.768.386H.532Z" transform="translate(165.332 31.708)"/>
</svg>
