<svg xmlns="http://www.w3.org/2000/svg" width="19.999" height="20" viewBox="0 0 19.999 20">
  <path id="Shape" d="M.586,20a.585.585,0,0,1-.576-.692l.906-4.894a.59.59,0,0,1,.162-.308l2.19-2.19L14.562.621a2.126,2.126,0,0,1,3,0l1.813,1.813a2.126,2.126,0,0,1,0,3L5.893,18.923a.6.6,0,0,1-.307.161L.693,19.99A.591.591,0,0,1,.586,20Zm1.28-4.278-.548,2.961,2.96-.549ZM13.852,2.988h0L2.321,14.521l3.158,3.158L17.011,6.147,13.852,2.988Zm2.212-1.817a.946.946,0,0,0-.674.279l-.709.709L17.84,5.318l.709-.709a.954.954,0,0,0,0-1.346L16.736,1.45A.944.944,0,0,0,16.064,1.171Z" transform="translate(0 0)" />
</svg>
