<svg id="warning" xmlns="http://www.w3.org/2000/svg" xmlns:xlink="http://www.w3.org/1999/xlink" width="41.999" height="41.999" viewBox="0 0 41.999 41.999">
  <defs>
    <linearGradient id="linear-gradient" x1="0.146" y1="0.146" x2="0.854" y2="0.854" gradientUnits="objectBoundingBox">
      <stop offset="0" stop-color="#ff9272"/>
      <stop offset="1" stop-color="#f53b19"/>
    </linearGradient>
    <linearGradient id="linear-gradient-2" x1="0.028" y1="0.5" x2="0.987" y2="0.5" gradientUnits="objectBoundingBox">
      <stop offset="0" stop-color="#5b5a5f"/>
      <stop offset="1"/>
    </linearGradient>
    <linearGradient id="linear-gradient-3" x1="0.247" y1="0.5" x2="0.696" y2="0.5" gradientUnits="objectBoundingBox">
      <stop offset="0" stop-color="#ffdb2d"/>
      <stop offset="1" stop-color="#ffa91f"/>
    </linearGradient>
    <linearGradient id="linear-gradient-4" x1="-1.776" y1="0.5" x2="2.261" y2="0.5" xlink:href="#linear-gradient-2"/>
    <linearGradient id="linear-gradient-5" x1="-2.196" y1="0.5" x2="2.586" y2="0.5" xlink:href="#linear-gradient-2"/>
  </defs>
  <circle id="Oval" cx="21" cy="21" r="21" transform="translate(0 0)" fill="url(#linear-gradient)"/>
  <path id="Path" d="M13.661,1.2.426,21.677a2.631,2.631,0,0,0,2.21,4.06H29.107a2.631,2.631,0,0,0,2.21-4.06L18.081,1.2A2.631,2.631,0,0,0,13.661,1.2Z" transform="translate(5.129 6.579)" fill="url(#linear-gradient-2)"/>
  <path id="Path-2" data-name="Path" d="M12.127.325.11,19.3A.7.7,0,0,0,.7,20.378H24.734a.7.7,0,0,0,.591-1.075L13.308.325A.7.7,0,0,0,12.127.325Z" transform="translate(8.283 9.258)" fill="url(#linear-gradient-3)"/>
  <g id="Group" transform="translate(19.523 14.52)">
    <path id="Path-3" data-name="Path" d="M0,0,.469,9.788H2.355L2.824,0Z" transform="translate(0.064 0.02)" fill="url(#linear-gradient-4)"/>
    <circle id="Oval-2" data-name="Oval" cx="1.192" cy="1.192" r="1.192" transform="translate(0.284 10.557)" fill="url(#linear-gradient-5)"/>
  </g>
</svg>
