<svg xmlns="http://www.w3.org/2000/svg" width="22" height="16" viewBox="0 0 22 16">
  <path id="Shape" d="M11.005,16h-.012c-.663,0-6.527-.057-8.2-.511A3.41,3.41,0,0,1,.406,13.083,25.153,25.153,0,0,1,0,8.022a26.194,26.194,0,0,1,.4-5.1l0-.005A3.482,3.482,0,0,1,2.8.5l.009,0C4.452.057,10.329,0,10.994,0h.012c.665,0,6.545.057,8.2.512a3.408,3.408,0,0,1,2.389,2.4A24.212,24.212,0,0,1,22,8.041a25.365,25.365,0,0,1-.4,5.054A3.415,3.415,0,0,1,19.2,15.506C17.543,15.944,11.67,16,11.005,16ZM11,1.73a59.758,59.758,0,0,0-7.753.435,1.732,1.732,0,0,0-1.18,1.2A24.6,24.6,0,0,0,1.72,8v.032a23.52,23.52,0,0,0,.346,4.6,1.679,1.679,0,0,0,1.18,1.183A57.305,57.305,0,0,0,11,14.27a59.6,59.6,0,0,0,7.756-.436,1.682,1.682,0,0,0,1.177-1.183,23.439,23.439,0,0,0,.346-4.6c0-.009,0-.018,0-.027a22.735,22.735,0,0,0-.345-4.652,1.685,1.685,0,0,0-1.182-1.19A57.242,57.242,0,0,0,11,1.73ZM8.808,11.5V4.5L14.824,8,8.81,11.5Z"/>
</svg>
