<svg id="Youtube_Black" data-name="Youtube/Black" xmlns="http://www.w3.org/2000/svg" width="19" height="14" viewBox="0 0 19 14">
  <g id="Youtube_Black-2" data-name="Youtube/Black" transform="translate(0 0)">
    <path id="Youtube" d="M9.5,14c-.049,0-4.957-.049-6.46-.2-.072-.014-.158-.025-.258-.037a2.737,2.737,0,0,1-1.837-.813A4.456,4.456,0,0,1,.19,10.973,31.829,31.829,0,0,1,0,7.752V6.241A31.861,31.861,0,0,1,.19,3.02,4.457,4.457,0,0,1,.945,1.044,2.56,2.56,0,0,1,2.728.215L2.849.2C5.477,0,9.456,0,9.5,0H9.5c.04,0,4.019,0,6.647.2l.121.013a2.558,2.558,0,0,1,1.783.83A4.463,4.463,0,0,1,18.81,3.02,31.84,31.84,0,0,1,19,6.241v1.51a31.851,31.851,0,0,1-.19,3.222,4.465,4.465,0,0,1-.755,1.976,2.561,2.561,0,0,1-1.781.83l-.123.013C13.521,13.992,9.54,14,9.5,14ZM7.538,3.989V9.582L12.671,6.8Z" />
  </g>
</svg>
