<svg id="SK-flag" xmlns="http://www.w3.org/2000/svg" xmlns:xlink="http://www.w3.org/1999/xlink" width="28" height="20" viewBox="0 0 28 20">
  <defs>
    <clipPath id="clip-path">
      <rect id="Mask" width="28" height="20" rx="2" fill="#fff" stroke="#f5f5f5" stroke-miterlimit="10" stroke-width="0.5"/>
    </clipPath>
    <clipPath id="clip-path-2">
      <path id="Mask-2" data-name="Mask" d="M.234,1.282A1.333,1.333,0,0,1,1.566,0h6.1A1.333,1.333,0,0,1,9,1.282l.259,6.74a1.333,1.333,0,0,1-.465,1.064L5.918,11.551a2,2,0,0,1-2.6,0L.439,9.086A1.333,1.333,0,0,1-.025,8.023Z" transform="translate(0.717)" fill="#f73744" stroke="#fff" stroke-miterlimit="10" stroke-width="1.333"/>
    </clipPath>
  </defs>
  <g id="Mask-3" data-name="Mask" fill="#fff" stroke="#f5f5f5" stroke-miterlimit="10" stroke-width="0.5">
    <rect width="28" height="20" rx="2" stroke="none"/>
    <rect x="0.25" y="0.25" width="27.5" height="19.5" rx="1.75" fill="none"/>
  </g>
  <g id="SK" clip-path="url(#clip-path)">
    <rect id="Rectangle_2" data-name="Rectangle 2" width="28" height="6.667" transform="translate(0 6.667)" fill="#0c47b7"/>
    <rect id="Rectangle_2-2" data-name="Rectangle 2" width="28" height="6.667" transform="translate(0 13.333)" fill="#e53b35"/>
    <g id="Rectangle_1693" data-name="Rectangle 1693" transform="translate(4.667 4)">
      <g id="Mask-4" data-name="Mask" transform="translate(0.717)" fill="#f73744" stroke-miterlimit="10">
        <path d="M 4.616646289825439 12.69917297363281 C 3.980516195297241 12.69917297363281 3.364196300506592 12.47118282318115 2.881206274032593 12.0571928024292 L 0.005516289733350277 9.592323303222656 C -0.4610137045383453 9.19243335723877 -0.7150337100028992 8.610942840576172 -0.6914137005805969 7.996943473815918 L -0.4321637153625488 1.256473302841187 C -0.3907037079334259 0.1780832558870316 0.4871563017368317 -0.6666667461395264 1.566346287727356 -0.6666667461395264 L 7.666946411132813 -0.6666667461395264 C 8.746136665344238 -0.6666667461395264 9.623996734619141 0.1780832558870316 9.66545581817627 1.256473302841187 L 9.92470645904541 7.996943473815918 C 9.948326110839844 8.610942840576172 9.694306373596191 9.19243335723877 9.227776527404785 9.592323303222656 L 6.352086067199707 12.0571928024292 C 5.869096279144287 12.47118282318115 5.252776145935059 12.69917297363281 4.616646289825439 12.69917297363281 Z" stroke="none"/>
        <path d="M 1.566346168518066 2.86102294921875e-06 C 0.8499059677124023 2.86102294921875e-06 0.2615365982055664 0.5661735534667969 0.2339963912963867 1.282093048095703 L -0.02524375915527344 8.022563934326172 C -0.0408935546875 8.429443359375 0.1302261352539063 8.821163177490234 0.4393758773803711 9.086153030395508 L 3.315066337585449 11.55102348327637 C 3.689556121826172 11.87201309204102 4.153101444244385 12.03250789642334 4.616646289825439 12.03250789642334 C 5.080191135406494 12.03250789642334 5.543736457824707 11.87201309204102 5.91822624206543 11.55102348327637 L 8.793916702270508 9.086153030395508 C 9.103066444396973 8.821163177490234 9.274186134338379 8.429443359375 9.258536338806152 8.022563934326172 L 8.999286651611328 1.282093048095703 C 8.971755981445313 0.5661735534667969 8.383386611938477 2.86102294921875e-06 7.666946411132813 2.86102294921875e-06 L 1.566346168518066 2.86102294921875e-06 M 1.566346168518066 -1.33332633972168 L 7.666946411132813 -1.33332633972168 C 9.105875968933105 -1.33332633972168 10.27634620666504 -0.2070064544677734 10.33163642883301 1.230863571166992 L 10.59088611602783 7.971323490142822 C 10.62237644195557 8.789983749389648 10.28367614746094 9.565313339233398 9.661645889282227 10.0984935760498 L 6.785946369171143 12.56336307525635 C 6.182216644287109 13.08084297180176 5.411806106567383 13.3658332824707 4.616646289825439 13.3658332824707 C 3.821486473083496 13.3658332824707 3.051076412200928 13.08084297180176 2.447346210479736 12.56336307525635 L -0.4283437728881836 10.0984935760498 C -1.050383567810059 9.565313339233398 -1.389083862304688 8.789983749389648 -1.357593536376953 7.9713134765625 L -1.098353385925293 1.230853080749512 C -1.043044090270996 -0.2070169448852539 0.127436637878418 -1.33332633972168 1.566346168518066 -1.33332633972168 Z" stroke="none" fill="#fff"/>
      </g>
      <g id="Rectangle_1693-2" data-name="Rectangle 1693" clip-path="url(#clip-path-2)">
        <path id="Rectangle_1694" data-name="Rectangle 1694" d="M2,5.667a.333.333,0,0,0-.333-.333H.333A.333.333,0,0,1,0,5V4.333A.333.333,0,0,1,.333,4H1.667A.333.333,0,0,0,2,3.667V3a.333.333,0,0,0-.333-.333H1a.333.333,0,0,1-.333-.333V1.667A.333.333,0,0,1,1,1.333h.667A.333.333,0,0,0,2,1V.333A.333.333,0,0,1,2.333,0H3a.333.333,0,0,1,.333.333V1a.333.333,0,0,0,.333.333h.667a.333.333,0,0,1,.333.333v.667a.333.333,0,0,1-.333.333H3.667A.333.333,0,0,0,3.333,3v.667A.333.333,0,0,0,3.667,4H5a.333.333,0,0,1,.333.333V5A.333.333,0,0,1,5,5.333H3.667a.333.333,0,0,0-.333.333v2A.333.333,0,0,1,3,8H2.333A.333.333,0,0,1,2,7.667Z" transform="translate(2.667 1.333)" fill="#fff"/>
        <path id="Oval_215" data-name="Oval 215" d="M0,2.667C0,1.772,1.176,1.015,2.8.759A1.334,1.334,0,0,1,5.2.759C6.825,1.015,8,1.772,8,2.667c0,1.1-1.791,2-4,2S0,3.771,0,2.667Z" transform="translate(1.333 8.667)" fill="#1251a1"/>
      </g>
    </g>
  </g>
</svg>
