<svg xmlns="http://www.w3.org/2000/svg" width="14.412" height="13.953" viewBox="0 0 14.412 13.953">
  <g id="house-black-silhouette-without-door" transform="translate(0 -0.042)">
    <path id="Path" d="M14.232,6.808a.687.687,0,0,0-.056-.983L7.734.188A.8.8,0,0,0,6.687.2L.224,6.125a.683.683,0,0,0-.031.982l.162.169a.707.707,0,0,0,.97.074l.483-.433V13.25a.7.7,0,0,0,.7.7H5.03a.7.7,0,0,0,.7-.7V8.819H8.947v4.43a.664.664,0,0,0,.66.7h2.67a.7.7,0,0,0,.7-.7V7.006l.3.262c.164.144.509.029.771-.259Z" transform="translate(0 0.042)" fill="#ff9215"/>
  </g>
</svg>
