<svg xmlns="http://www.w3.org/2000/svg"><symbol id="sprite-arrow-left" viewBox="0 0 17.414 17.414"><title>arrow-left</title><path d="M8 0L0 8l8 8M0 8h16" transform="translate(1.414 .707)" fill="none" stroke="" stroke-miterlimit="10" stroke-width="2"/></symbol><symbol id="sprite-arrow-right" viewBox="0 0 16.707 8.707"><title>arrow-right</title><path d="M12 0l4 4-4 4m4-4H0" transform="translate(0 .354)" fill="none" stroke="" stroke-miterlimit="10"/></symbol><symbol id="sprite-avatar-logged-in" viewBox="0 0 33 30"><title>avatar-logged-in</title><g stroke-miterlimit="10"><g data-name="Group 3 Copy" transform="translate(1 1)" fill="none" stroke="#fff" stroke-width="2"><circle cx="5" cy="5" r="5" transform="translate(9 6)"/><path d="M5 24.63h0A7.74 7.74 0 0112.688 16h2.624A7.74 7.74 0 0123 24.63h0"/><circle data-name="Oval" cx="14" cy="14" r="14"/></g><g data-name="Oval Copy 5" transform="translate(24 21)" fill="#00a046" stroke="#272933" stroke-width="3"><circle cx="3" cy="3" r="3" stroke="none"/><circle cx="3" cy="3" r="4.5" fill="none"/></g></g></symbol><symbol id="sprite-avatar" viewBox="0 0 30 30"><title>avatar</title><g transform="translate(1 1)" fill="none" stroke="" stroke-miterlimit="10" stroke-width="2"><circle cx="5" cy="5" r="5" transform="translate(9 6)"/><path d="M5 24.63A7.74 7.74 0 0112.688 16h2.624A7.74 7.74 0 0123 24.63"/><circle cx="14" cy="14" r="14"/></g></symbol><symbol id="sprite-book-circled" viewBox="0 0 22 22"><title>book-circled</title><g data-name="Group 1" transform="translate(-1209 -124)"><circle data-name="Oval Copy 2" cx="11" cy="11" r="11" transform="translate(1209 124)" fill="#ff9215"/><g fill="#1f222b"><path d="M3 8.889A6.56 6.56 0 00.41 9.5c-.055 0-.082.028-.137.028A.3.3 0 010 9.25V1.111a5.005 5.005 0 013-.833 5.006 5.006 0 013 .833 5 5 0 013-.833 6.332 6.332 0 011.909.278A3.67 3.67 0 0112 1.111v8.111a.3.3 0 01-.273.278.24.24 0 01-.136-.028A5.469 5.469 0 009 8.889a6.475 6.475 0 00-3 .833 5.006 5.006 0 00-3-.833z" transform="translate(1214 130)"/><g data-name="Group"><path d="M2.455.833a6.267 6.267 0 011.363.145V.133A7.236 7.236 0 002.455 0 6.176 6.176 0 000 .461v.922a4.988 4.988 0 012.455-.55z" transform="translate(1220.545 132.778)"/><path data-name="Path" d="M0 1.939v.922a4.988 4.988 0 012.455-.55 6.267 6.267 0 011.363.145v-.845a7.236 7.236 0 00-1.363-.133A6.275 6.275 0 000 1.939zm2.455 1.022A6.176 6.176 0 000 3.422v.922a4.988 4.988 0 012.455-.55 6.267 6.267 0 011.363.145v-.845a6.8 6.8 0 00-1.363-.133z" transform="translate(1220.545 132.778)"/></g></g></g></symbol><symbol id="sprite-cancel-circled" viewBox="0 0 21.5 21.5"><title>cancel-circled</title><g transform="translate(.75 .75)" fill="none" stroke=""><rect width="20" height="20" rx="10"/><path d="M7.172 7.172l5.657 5.657m-5.657 0l5.657-5.657"/></g></symbol><symbol id="sprite-cancel" viewBox="0 0 21.213 21.213"><title>cancel</title><path d="M424.808 219.393l19.799 19.799-1.414 1.414-19.8-19.799z" transform="translate(-423.393 -219.393)"/><path d="M423.393 239.192l19.799-19.799 1.414 1.414-19.799 19.8z" transform="translate(-423.393 -219.393)"/></symbol><symbol id="sprite-car" viewBox="0 0 21.5 17.5"><title>car</title><g transform="translate(.75 .75)" stroke="" stroke-miterlimit="10" stroke-width="1.5" fill="#fff"><rect width="14" height="14" rx="1"/><path d="M14 5h2.208a2 2 0 011.779 1.085l1.9 3.7a1 1 0 01.113.457V13a1 1 0 01-1 1h-5z"/><path d="M14 10h5a1 1 0 011 1v2a1 1 0 01-1 1h-4a1 1 0 01-1-1v-3z"/><circle cx="2" cy="2" r="2" transform="translate(2 12)"/><circle cx="2" cy="2" r="2" transform="translate(12 12)"/></g></symbol><symbol id="sprite-check-circled" viewBox="0 0 21.5 21.5"><title>check-circled</title><g transform="translate(.75 .75)" stroke="" stroke-miterlimit="10" stroke-width="1.5" fill="none"><rect width="20" height="20" rx="10"/><path d="M3.75 8.957l4.874 4.793 7.626-7.5"/></g></symbol><symbol id="sprite-chevron-left" viewBox="0 0 9.121 15.414"><title>chevron-left</title><path d="M8.414.707l-7 7 7 7" fill="none" stroke="" stroke-miterlimit="10" stroke-width="2"/></symbol><symbol id="sprite-chevron-right" viewBox="0 0 8.121 13.414"><title>chevron-right</title><path d="M.707.707l6 6-6 6" fill="none" stroke="" stroke-miterlimit="10" stroke-width="2"/></symbol><symbol id="sprite-download" viewBox="0 0 24 24"><title>download</title><path d="M22.125 14.672v6.516a.939.939 0 01-.937.938H2.813a.939.939 0 01-.937-.937v-6.517H0v6.516A2.816 2.816 0 002.813 24h18.375A2.816 2.816 0 0024 21.188v-6.516z"/><path d="M16.5 11.049l-3.563 3.563V0h-1.875v14.612L7.5 11.049l-1.326 1.326L12 18.2l5.826-5.826z"/></symbol><symbol id="sprite-email" viewBox="0 0 23.993 17.139"><title>email</title><g fill="#ff9215"><path d="M23.136.013H.857l11.14 9.176L23.262.039a.775.775 0 00-.126-.026z" transform="translate(0 -.013)"/><path data-name="Path" d="M12.537 10.962a.857.857 0 01-1.086 0L0 1.527v14.768a.857.857 0 00.857.857h22.279a.857.857 0 00.857-.857V1.654z" transform="translate(0 -.013)"/></g></symbol><symbol id="sprite-facebook" viewBox="0 0 20 20"><title>facebook</title><path d="M17.656 20H2.344A2.346 2.346 0 010 17.656V2.344A2.346 2.346 0 012.344 0h15.312A2.346 2.346 0 0120 2.344v15.312A2.346 2.346 0 0117.656 20zM13.2 12.07v6.368h4.453a.782.782 0 00.781-.781V2.344a.782.782 0 00-.781-.781H2.344a.782.782 0 00-.781.781v15.312a.782.782 0 00.781.781h8.438V12.07H8.438V9.648h2.344V7.976a3.6 3.6 0 013.593-3.6h1.6V6.8h-1.6A1.146 1.146 0 0013.2 7.969v1.679h2.812l-.4 2.422z"/></symbol><symbol id="sprite-heart" viewBox="0 0 27.602 25.65"><title>heart</title><path d="M19.62.754c4.722.038 8.436 6.133 6.791 11.045-1.376 4.109-4.852 7.237-8.336 10.009-1.28 1.018-2.899 2.072-4.268 2.946-4.2-2.8-8.66-6.239-11.347-10.515a9.418 9.418 0 01-.953-8.804A7.548 7.548 0 018.714.788a9.256 9.256 0 015.108 2.393 16.85 16.85 0 011.5-1.092A8.178 8.178 0 0119.62.754z" stroke="" stroke-miterlimit="10" stroke-width="2"/></symbol><symbol id="sprite-home" viewBox="0 0 14.412 13.953"><title>home</title><path d="M14.232 6.85a.687.687 0 00-.056-.983L7.734.23a.8.8 0 00-1.047.012L.224 6.167a.683.683 0 00-.031.982l.162.169a.707.707 0 00.97.074l.483-.433v6.333a.7.7 0 00.7.7H5.03a.7.7 0 00.7-.7V8.861h3.217v4.43a.664.664 0 00.66.7h2.67a.7.7 0 00.7-.7V7.048l.3.262c.164.144.509.029.771-.259z" fill="#ff9215" transform="translate(0 -.042)"/></symbol><symbol id="sprite-info" viewBox="0 0 17.718 17.718"><title>info</title><path d="M8.859 17.718a8.859 8.859 0 118.86-8.86 8.869 8.869 0 01-8.86 8.86zM7.045 8.062a.9.9 0 01.609.151.732.732 0 01.159.537 2.474 2.474 0 01-.051.475 9.127 9.127 0 01-.129.548l-.57 2.017c-.051.218-.087.4-.11.569a3.754 3.754 0 00-.034.495 1.309 1.309 0 00.459 1.025 1.89 1.89 0 001.287.4 2.918 2.918 0 00.947-.141c.29-.1.657-.24 1.091-.411l.153-.62a2.831 2.831 0 01-.38.127 1.766 1.766 0 01-.47.073 1 1 0 01-.62-.146.676.676 0 01-.179-.545 2.9 2.9 0 01.055-.47 5.453 5.453 0 01.125-.552l.568-2.011a3.173 3.173 0 00.114-.608c.021-.232.031-.38.031-.464a1.325 1.325 0 00-.446-1.031 1.856 1.856 0 00-1.269-.4 3.173 3.173 0 00-.967.164c-.336.106-.7.237-1.073.391l-.151.621c.116-.045.26-.09.4-.132a1.641 1.641 0 01.451-.062zm2.6-4.655a1.36 1.36 0 00-.959.373 1.2 1.2 0 000 1.792 1.428 1.428 0 001.916 0 1.21 1.21 0 000-1.792 1.35 1.35 0 00-.956-.373z"/></symbol><symbol id="sprite-lens" viewBox="0 0 25.071 25.071"><title>lens</title><g transform="translate(1 1)" fill="none" stroke="" stroke-miterlimit="10" stroke-width="2"><circle cx="10" cy="10" r="10"/><path d="M17 17l6.364 6.364"/></g></symbol><symbol id="sprite-logo" viewBox="0 0 239 46"><title>logo</title><g data-name="Group 21"><path data-name="Fill 1" d="M16.428 19.002A7.564 7.564 0 0128.4 17.681l3.572-3.42a12.523 12.523 0 00-20.961 4.741z" fill="#8a8b91"/><path data-name="Fill 3" d="M22.918 30.508a7.585 7.585 0 01-6.49-3.675h-5.417a12.557 12.557 0 0011.907 8.621 12.5 12.5 0 009.044-3.868l-3.571-3.423a7.563 7.563 0 01-5.473 2.345" fill="#8a8b91"/><path data-name="Fill 5" d="M5.12 25.391h21.93v-4.947H5.12A17.957 17.957 0 0135.895 10.5l3.567-3.418A22.9 22.9 0 000 22.917a23.08 23.08 0 00.136 2.473z" fill="#ff9215"/><path data-name="Fill 7" d="M40.714 20.445h-5.507a12.538 12.538 0 010 4.946h5.507a18 18 0 01-17.8 15.5A17.91 17.91 0 019.96 35.354l-3.567 3.419a22.847 22.847 0 0016.524 7.062 22.944 22.944 0 0022.918-22.917 23.087 23.087 0 00-.136-2.473z" fill="#ff9215"/><path data-name="Fill 9" d="M71.986 25.293a5.22 5.22 0 011.485 3.55 6.077 6.077 0 01-1.012 3.433 7.517 7.517 0 01-2.572 2.418 8.664 8.664 0 01-4.275.887 9.826 9.826 0 01-4.528-.932 14.786 14.786 0 01-3.625-2.744l2.645-2.737a13.815 13.815 0 005.255 2.6 3.616 3.616 0 003.459-1.023 2.022 2.022 0 00.38-2.771 10.615 10.615 0 00-3.07-2.744q-2.129-1.367-3.849-2.418a11.781 11.781 0 01-2.9-2.444 5.594 5.594 0 01-1.314-3.3 5.558 5.558 0 01.924-3.523 6.932 6.932 0 012.926-2.499 10.263 10.263 0 014.411-.878 8.747 8.747 0 014.085.815 13.075 13.075 0 013.348 2.808l-2.715 2.771q-2.228-2.594-4.501-2.794a4.352 4.352 0 00-3.423.842 3.239 3.239 0 00-1.223 2.142 2.171 2.171 0 00.725 1.829 11.748 11.748 0 001.566 1.233q.77.5 3.542 2.164a18.714 18.714 0 014.256 3.315z" fill="#ff9215"/><path data-name="Clip 12" d="M0 45.835h238.6V0H0z" fill="none"/><path data-name="Fill 11" d="M75.573 35.581h3.623V10.222h-3.623z" fill="#ff9215"/><path data-name="Fill 13" d="M100.95 17.468a9.233 9.233 0 00-.851-.978 8.771 8.771 0 00-6.412-2.644 8.724 8.724 0 00-6.4 2.654 8.724 8.724 0 00-2.654 6.4 8.724 8.724 0 002.654 6.4 8.724 8.724 0 006.4 2.654 8.74 8.74 0 006.412-2.663 8.733 8.733 0 002.482-4.583h-8.894v-3.617h12.571a14.944 14.944 0 01.109 1.811 12.217 12.217 0 01-3.714 8.967 12.216 12.216 0 01-8.966 3.713 12.217 12.217 0 01-8.967-3.713 12.219 12.219 0 01-3.713-8.967 12.218 12.218 0 013.713-8.966 12.217 12.217 0 018.967-3.713 12.216 12.216 0 018.966 3.713 13.928 13.928 0 011.2 1.358z" fill="#ff9215"/><path data-name="Fill 14" d="M108.177 10.195l14.491 15.94V10.249h3.623v19.853l.073.072h-.073v5.434l-.254-.4-14.237-15.63v16.03h-3.623z" fill="#ff9215"/><path data-name="Fill 15" d="M144.402 13.845h-12.677v5.434h12.677v3.623h-12.677v9.057h12.677v3.623h-16.3v-25.36h16.3z" fill="#8a8b91"/><path data-name="Fill 16" d="M155.273 19.134l4.909-8.912h4.148l-6.974 12.68 6.974 12.68h-4.148l-4.909-8.913-4.909 8.912h-4.148l6.992-12.679-6.992-12.68h4.148z" fill="#8a8b91"/><path data-name="Fill 17" d="M169.764 35.581h-3.623V10.222h9.057a7.013 7.013 0 015.126 2.119 7.016 7.016 0 012.117 5.126 7.011 7.011 0 01-2.119 5.126 7.011 7.011 0 01-5.126 2.12h-5.432V35.58zm0-21.737v7.245h5.434a3.618 3.618 0 003.623-3.622 3.62 3.62 0 00-3.623-3.622z" fill="#8a8b91"/><path data-name="Fill 18" d="M200.555 13.845h-12.677v5.434h12.677v3.623h-12.677v9.057h12.677v3.623h-16.3v-25.36h16.3z" fill="#8a8b91"/><path data-name="Fill 19" d="M205.991 35.582h-3.623v-25.36h9.057a7.013 7.013 0 015.126 2.119 7.016 7.016 0 012.117 5.126 7.011 7.011 0 01-2.119 5.126 6.975 6.975 0 01-4.021 2.047l6.249 10.94h-4.166l-6.193-10.867h-2.427v10.868zm0-21.738v7.245h5.434a3.618 3.618 0 003.623-3.622 3.62 3.62 0 00-3.623-3.622z" fill="#8a8b91"/><path data-name="Fill 20" d="M227.727 13.845h-7.245v-3.623h18.114v3.623h-7.246v21.736h-3.623z" fill="#8a8b91"/></g></symbol><symbol id="sprite-logout" viewBox="0 0 23.414 20"><title>logout</title><path data-name="Combined Shape" d="M11.414 20a2 2 0 01-1.994-1.85L9.414 18v-5h2v5h10V2h-10v5h-2V2A2 2 0 0111.265.005L11.414 0h10a2 2 0 011.994 1.85l.006.15v16a2 2 0 01-1.851 1.994l-.148.006zM0 10l5.707-5.707 1.415 1.414L3.829 9h12.585v2H3.829l3.292 3.293-1.414 1.414z"/></symbol><symbol id="sprite-mail" viewBox="0 0 25.5 17.5"><title>mail</title><g transform="translate(.75 .75)" fill="none" stroke="" stroke-miterlimit="10" stroke-width="1.5"><rect width="24" height="16" rx="1"/><path d="M0 0l12 10.174L24 0"/></g></symbol><symbol id="sprite-menu" viewBox="0 0 28 22"><title>menu</title><g data-name="Group 1"><path d="M420 39h28v2h-28z" transform="translate(-420 -39)"/><path data-name="Rectangle Copy 5" d="M420 49h28v2h-28z" transform="translate(-420 -39)"/><path data-name="Rectangle Copy 6" d="M420 59h28v2h-28z" transform="translate(-420 -39)"/></g></symbol><symbol id="sprite-minus" viewBox="0 0 13 1"><title>minus</title><path d="M0 0h13v1H0z"/></symbol><symbol id="sprite-pagination-chevron-left" viewBox="0 0 9.121 15.414"><title>pagination-chevron-left</title><path d="M8.414.707l-7 7 7 7" fill="none" stroke="" stroke-miterlimit="10"/></symbol><symbol id="sprite-pagination-chevron-right" viewBox="0 0 8.121 13.414"><title>pagination-chevron-right</title><path d="M.707.707l6 6-6 6" fill="none" stroke="" stroke-miterlimit="10"/></symbol><symbol id="sprite-pencil" viewBox="0 0 19.999 20"><title>pencil</title><path d="M.586 20a.585.585 0 01-.576-.692l.906-4.894a.59.59 0 01.162-.308l2.19-2.19L14.562.621a2.126 2.126 0 013 0l1.813 1.813a2.126 2.126 0 010 3L5.893 18.923a.6.6 0 01-.307.161l-4.893.906a.591.591 0 01-.107.01zm1.28-4.278l-.548 2.961 2.96-.549zM13.852 2.988L2.321 14.521l3.158 3.158L17.011 6.147l-3.159-3.159zm2.212-1.817a.946.946 0 00-.674.279l-.709.709 3.159 3.159.709-.709a.954.954 0 000-1.346L16.736 1.45a.944.944 0 00-.672-.279z"/></symbol><symbol id="sprite-phone-circled" viewBox="0 0 22 22"><title>phone-circled</title><g data-name="Group 2" transform="translate(-1299 -124)"><circle cx="11" cy="11" r="11" transform="translate(1299 124)" fill="#ff9215"/><path d="M11.053 7.9A6.86 6.86 0 018.9 7.559a.922.922 0 00-.937.2L6.6 8.786A7.609 7.609 0 013.215 5.4l1-1.33a.956.956 0 00.235-.97A6.858 6.858 0 014.105.947.949.949 0 003.158 0H.947A.949.949 0 000 .947 11.066 11.066 0 0011.053 12a.949.949 0 00.947-.947v-2.2a.949.949 0 00-.947-.953z" fill="#1f222b" transform="translate(1304 129)" data-name="phone-call-2 copy"/></g></symbol><symbol id="sprite-phone" viewBox="0 0 20 20"><title>phone</title><path d="M18.421 13.168a11.434 11.434 0 01-3.587-.571 1.537 1.537 0 00-1.561.331L11 14.643A12.682 12.682 0 015.358 9l1.668-2.217a1.593 1.593 0 00.391-1.611 11.429 11.429 0 01-.575-3.594A1.581 1.581 0 005.263 0H1.579A1.581 1.581 0 000 1.579 18.443 18.443 0 0018.421 20 1.581 1.581 0 0020 18.421v-3.674a1.581 1.581 0 00-1.579-1.579z" fill="#ff9215"/></symbol><symbol id="sprite-play-button" viewBox="0 0 106 106"><title>play-button</title><defs><filter id="a" x="0" y="0" width="106" height="106" filterUnits="userSpaceOnUse"><feOffset dy="3"/><feGaussianBlur stdDeviation="6" result="blur"/><feFlood flood-opacity=".2"/><feComposite operator="in" in2="blur"/><feComposite in="SourceGraphic"/></filter></defs><g filter="url(#a)"><circle cx="35" cy="35" r="35" transform="translate(18 15)" fill="#fff"/></g><path d="M1131.5 1301l-16 10.5v-21z" fill="#ff9215" transform="translate(-1068 -1251)"/></symbol><symbol id="sprite-plus" viewBox="0 0 13 13"><title>plus</title><path d="M0 6h13v1H0z"/><path d="M7 0v13H6V0z"/></symbol><symbol id="sprite-reorder" viewBox="0 0 21.5 22.28"><title>reorder</title><g fill="none" stroke="" stroke-miterlimit="10" stroke-width="1.5"><path d="M9 5h11c-.448 0 0 .448 0 1v14a1 1 0 01-1 1H1a1 1 0 01-1-1V6a1 1 0 011-1h4.327" transform="translate(.75 .53)"/><path d="M14 0L9 5l5 5" transform="translate(.75 .53)"/></g></symbol><symbol id="sprite-shopping-cart" viewBox="0 0 35.237 30"><title>shopping-cart</title><g transform="translate(0 1)" fill="none" stroke-miterlimit="10" stroke-width="2"><path d="M7 4h27l-3 14H10z"/><circle cx="3" cy="3" r="3" transform="translate(10 22)"/><circle cx="3" cy="3" r="3" transform="translate(25 22)"/><path d="M7 4l-.9-4H0m13 22h15"/></g></symbol><symbol id="sprite-watch" viewBox="0 0 21.5 21.5"><title>watch</title><g transform="translate(.75 .75)" fill="none" stroke=""><rect width="20" height="20" rx="10"/><path d="M10 4v7h7"/></g></symbol><symbol id="sprite-youtube" viewBox="0 0 22 16"><title>youtube</title><path d="M11.005 16h-.012c-.663 0-6.527-.057-8.2-.511a3.41 3.41 0 01-2.387-2.406A25.153 25.153 0 010 8.022a26.194 26.194 0 01.4-5.1v-.005A3.482 3.482 0 012.8.5h.009c1.643-.443 7.52-.5 8.185-.5h.012c.665 0 6.545.057 8.2.512a3.408 3.408 0 012.389 2.4A24.212 24.212 0 0122 8.041a25.365 25.365 0 01-.4 5.054 3.415 3.415 0 01-2.4 2.411c-1.657.438-7.53.494-8.195.494zM11 1.73a59.758 59.758 0 00-7.753.435 1.732 1.732 0 00-1.18 1.2A24.6 24.6 0 001.72 8v.032a23.52 23.52 0 00.346 4.6 1.679 1.679 0 001.18 1.183A57.305 57.305 0 0011 14.27a59.6 59.6 0 007.756-.436 1.682 1.682 0 001.177-1.183 23.439 23.439 0 00.346-4.6v-.027a22.735 22.735 0 00-.345-4.652 1.685 1.685 0 00-1.182-1.19A57.242 57.242 0 0011 1.73zM8.808 11.5v-7L14.824 8 8.81 11.5z"/></symbol></svg>