<svg xmlns="http://www.w3.org/2000/svg" width="22" height="22" viewBox="0 0 22 22">
  <g id="Group_2" data-name="Group 2" transform="translate(-1299 -124)">
    <circle id="Oval" cx="11" cy="11" r="11" transform="translate(1299 124)" fill="#ff9215"/>
    <g id="phone-call-2_copy" data-name="phone-call-2 copy" transform="translate(1304 129)">
      <path id="Path" d="M11.053,7.9A6.86,6.86,0,0,1,8.9,7.559a.922.922,0,0,0-.937.2L6.6,8.786A7.609,7.609,0,0,1,3.215,5.4l1-1.33A.956.956,0,0,0,4.45,3.1,6.858,6.858,0,0,1,4.105.947.949.949,0,0,0,3.158,0H.947A.949.949,0,0,0,0,.947,11.066,11.066,0,0,0,11.053,12,.949.949,0,0,0,12,11.053v-2.2A.949.949,0,0,0,11.053,7.9Z" fill="#1f222b"/>
    </g>
  </g>
</svg>
