<svg xmlns="http://www.w3.org/2000/svg" xmlns:xlink="http://www.w3.org/1999/xlink" width="32" height="32" viewBox="0 0 32 32">
  <defs>
    <clipPath id="clip-path">
      <rect id="Mask" width="28" height="28" rx="14" fill="#fff" stroke="#1f222b" stroke-miterlimit="10" stroke-width="2"/>
    </clipPath>
    <clipPath id="clip-path-2">
      <path id="Mask-2" data-name="Mask" d="M.328,1.795A1.867,1.867,0,0,1,2.193,0h8.541A1.867,1.867,0,0,1,12.6,1.795l.363,9.437a1.867,1.867,0,0,1-.65,1.489L8.286,16.171a2.8,2.8,0,0,1-3.644,0L.615,12.721a1.867,1.867,0,0,1-.65-1.489Z" transform="translate(0.07)" fill="#f73744" stroke="#fff" stroke-miterlimit="10" stroke-width="1.867"/>
    </clipPath>
  </defs>
  <g id="SK" transform="translate(2 2)">
    <g id="Mask-3" data-name="Mask" fill="#fff" stroke="#1f222b" stroke-miterlimit="10" stroke-width="2">
      <rect width="28" height="28" rx="14" stroke="none"/>
      <rect x="-1" y="-1" width="30" height="30" rx="15" fill="none"/>
    </g>
    <g id="SK-2" data-name="SK" clip-path="url(#clip-path)">
      <rect id="Rectangle_2" data-name="Rectangle 2" width="39.2" height="9.333" transform="translate(-1 9.333)" fill="#0c47b7"/>
      <rect id="Rectangle_2-2" data-name="Rectangle 2" width="39.2" height="9.333" transform="translate(-1 18.667)" fill="#e53b35"/>
      <g id="Rectangle_1693" data-name="Rectangle 1693" transform="translate(6.467 5.6)">
        <g id="Mask-4" data-name="Mask" transform="translate(0.07)" fill="#f73744" stroke-miterlimit="10">
          <path d="M 6.463304042816162 17.77885437011719 C 5.572723865509033 17.77885437011719 4.709864139556885 17.45966529846191 4.033684253692627 16.88007545471191 L 0.007724042981863022 13.42925453186035 C -0.6454159617424011 12.86942481994629 -1.001055955886841 12.05533504486084 -0.9679859280586243 11.19572448730469 L -0.6050359606742859 1.759054780006409 C -0.5469759702682495 0.2493047565221786 0.6820240616798401 -0.9333252310752869 2.192893981933594 -0.9333252310752869 L 10.73371410369873 -0.9333252310752869 C 12.24458408355713 -0.9333252310752869 13.47358417510986 0.2493047565221786 13.53164386749268 1.759054780006409 L 13.89459419250488 11.19572448730469 C 13.92766380310059 12.05533504486084 13.57202434539795 12.86942481994629 12.91887378692627 13.42926502227783 L 8.89293384552002 16.88007545471191 C 8.216744422912598 17.45966529846191 7.353884220123291 17.77885437011719 6.463304042816162 17.77885437011719 Z" stroke="none"/>
          <path d="M 2.192893981933594 -5.7220458984375e-06 C 1.189873695373535 -5.7220458984375e-06 0.3661537170410156 0.7926445007324219 0.3276042938232422 1.794924736022949 L -0.03534603118896484 11.23159408569336 C -0.05725574493408203 11.80121421813965 0.1823139190673828 12.34963417053223 0.6151342391967773 12.72061538696289 L 4.641083717346191 16.17143440246582 C 5.165374279022217 16.62081909179688 5.814339160919189 16.84551239013672 6.463304042816162 16.84551239013672 C 7.112268924713135 16.84551239013672 7.761233806610107 16.62081909179688 8.285524368286133 16.17143440246582 L 12.31147384643555 12.72061538696289 C 12.74429416656494 12.34963417053223 12.98386383056641 11.80121421813965 12.96195411682129 11.23159408569336 L 12.59900379180908 1.794924736022949 C 12.56045436859131 0.7926445007324219 11.73673439025879 -5.7220458984375e-06 10.73371410369873 -5.7220458984375e-06 L 2.192893981933594 -5.7220458984375e-06 M 2.192893981933594 -1.866674423217773 L 10.73371410369873 -1.866674423217773 C 12.74820423126221 -1.866674423217773 14.38686370849609 -0.289825439453125 14.46429443359375 1.723184585571289 L 14.82724380493164 11.15985488891602 C 14.87132453918457 12.30600452423096 14.39714431762695 13.39146423339844 13.52626419067383 14.13790512084961 L 9.500333786010742 17.58871459960938 C 8.655084609985352 18.31319427490234 7.57651424407959 18.71218490600586 6.463304042816162 18.71218490600586 C 5.350093841552734 18.71218490600586 4.271524429321289 18.31319427490234 3.426294326782227 17.58872413635254 L -0.5996761322021484 14.13789463043213 C -1.470536231994629 13.39146423339844 -1.94471549987793 12.30600452423096 -1.900635719299316 11.15984535217285 L -1.537686347961426 1.723184585571289 C -1.46025562286377 -0.289825439453125 0.1784038543701172 -1.866674423217773 2.192893981933594 -1.866674423217773 Z" stroke="none" fill="#fff"/>
        </g>
        <g id="Rectangle_1693-2" data-name="Rectangle 1693" clip-path="url(#clip-path-2)">
          <path id="Rectangle_1694" data-name="Rectangle 1694" d="M2.8,7.933a.467.467,0,0,0-.467-.467H.467A.467.467,0,0,1,0,7V6.067A.467.467,0,0,1,.467,5.6H2.333A.467.467,0,0,0,2.8,5.133V4.2a.467.467,0,0,0-.467-.467H1.4a.467.467,0,0,1-.467-.467V2.333A.467.467,0,0,1,1.4,1.867h.933A.467.467,0,0,0,2.8,1.4V.467A.467.467,0,0,1,3.267,0H4.2a.467.467,0,0,1,.467.467V1.4a.467.467,0,0,0,.467.467h.933a.467.467,0,0,1,.467.467v.933a.467.467,0,0,1-.467.467H5.133a.467.467,0,0,0-.467.467v.933a.467.467,0,0,0,.467.467H7a.467.467,0,0,1,.467.467V7A.467.467,0,0,1,7,7.467H5.133a.467.467,0,0,0-.467.467v2.8A.467.467,0,0,1,4.2,11.2H3.267a.467.467,0,0,1-.467-.467Z" transform="translate(2.8 1.867)" fill="#fff"/>
          <path id="Oval_215" data-name="Oval 215" d="M0,3.733C0,2.48,1.646,1.42,3.915,1.062a1.867,1.867,0,0,1,3.37,0C9.554,1.42,11.2,2.48,11.2,3.733c0,1.546-2.507,2.8-5.6,2.8S0,5.279,0,3.733Z" transform="translate(0.933 12.133)" fill="#1251a1"/>
        </g>
      </g>
    </g>
  </g>
</svg>
