<svg xmlns="http://www.w3.org/2000/svg" width="100" height="100" viewBox="0 0 100 100">
  <g id="Group_3" data-name="Group 3" transform="translate(-750 -154)">
    <rect id="Rectangle" width="100" height="100" rx="50" transform="translate(750 154)" fill="#ffdada" opacity="0.8"/>
    <path id="_" data-name="!" d="M21.969,18.391l-.445,24.141H18.359l-.422-24.141ZM20,52.422a2.527,2.527,0,0,1-1.84-.75,2.468,2.468,0,0,1-.762-1.828A2.594,2.594,0,0,1,21.828,48a2.488,2.488,0,0,1,.773,1.84,2.45,2.45,0,0,1-.773,1.828A2.538,2.538,0,0,1,20,52.422Z" transform="translate(779.602 168.609)" fill="#ff1820"/>
  </g>
</svg>
